<svg width="22" height="22" viewBox="0 0 22 22" fill="none" xmlns="http://www.w3.org/2000/svg">
<path d="M9.16669 3.66667C7.45823 3.66667 6.60401 3.66667 5.93018 3.94578C5.03174 4.31793 4.31794 5.03173 3.94579 5.93017C3.66669 6.60399 3.66669 7.45822 3.66669 9.16667V12.4667C3.66669 14.5202 3.66669 15.5469 4.06633 16.3313C4.41787 17.0212 4.97879 17.5821 5.66872 17.9337C6.45306 18.3333 7.47983 18.3333 9.53335 18.3333H12.8334C14.5418 18.3333 15.396 18.3333 16.0698 18.0542C16.9683 17.682 17.6821 16.9682 18.0542 16.0698C18.3334 15.396 18.3334 14.5418 18.3334 12.8333" stroke="#F5F5F5" stroke-width="0.75" stroke-linecap="square"/>
<path d="M11.4027 13.3473L17.875 6.875C18.6344 6.1156 18.6344 4.88439 17.875 4.125C17.1156 3.3656 15.8844 3.3656 15.125 4.125L8.65273 10.5973C8.39487 10.8552 8.25 11.2049 8.25 11.5695V13.75H10.4305C10.7951 13.75 11.1448 13.6052 11.4027 13.3473Z" stroke="#F5F5F5" stroke-width="0.75" stroke-linecap="square"/>
</svg>
